<svg width="600" height="600" viewBox="0 0 600 600" fill="none" xmlns="http://www.w3.org/2000/svg">
<path d="M416 392.179C416 394.217 418.093 395.581 419.953 394.755L580.326 323.588C581.344 323.136 582 322.126 582 321.012V278.988C582 277.874 581.344 276.864 580.326 276.412L419.953 205.245C418.093 204.419 416 205.783 416 207.821V257.578C416 258.727 416.696 259.761 417.76 260.191L513.336 299.246C514.51 299.721 514.51 300.279 513.336 300.754L417.76 339.809C416.696 340.239 416 341.273 416 342.422V392.179Z" fill="#F8DB46"/>
<path fill-rule="evenodd" clip-rule="evenodd" d="M409 207.821C409 202.178 414.804 198.377 419.981 200.674L580.354 271.842C583.182 273.097 585 275.9 585 278.988V321.011C585 324.1 583.182 326.903 580.354 328.158L419.981 399.325C414.804 401.623 409 397.822 409 392.179V342.422C409 339.242 410.926 336.374 413.877 335.177C413.88 335.176 413.882 335.175 413.885 335.174L499.963 300L413.885 264.826C413.881 264.824 413.878 264.823 413.875 264.822C410.925 263.624 409 260.757 409 257.578V207.821ZM419 211.179V256.114L513.212 294.611C513.215 294.612 513.218 294.614 513.221 294.615C513.76 294.834 514.537 295.203 515.263 295.83C515.968 296.438 517.216 297.828 517.216 300C517.216 302.172 515.968 303.562 515.263 304.17C514.537 304.797 513.76 305.166 513.221 305.385C513.218 305.386 513.215 305.388 513.212 305.389L419 343.886V388.821L575 319.594V280.406L419 211.179Z" fill="#05060F"/>
<path d="M23.6811 277.004C22.6596 277.454 22 278.468 22 279.588V321.412C22 322.532 22.6596 323.546 23.6811 323.996L184.054 394.758C185.913 395.579 188 394.212 188 392.173V342.66C188 341.506 187.3 340.468 186.233 340.039L90.6636 300.5C89.4858 300.026 89.4858 300.218 90.6636 299.744L186.233 260.961C187.3 260.532 188 259.494 188 258.34V208.827C188 206.788 185.913 205.422 184.054 206.242L23.6811 277.004Z" fill="#F8DB46"/>
<path fill-rule="evenodd" clip-rule="evenodd" d="M182.036 201.668C187.225 199.378 193 203.204 193 208.827V258.34C193 261.523 191.073 264.398 188.111 265.595C188.107 265.597 188.103 265.598 188.099 265.6L102.928 300.163L188.128 335.412C191.08 336.613 193 339.484 193 342.66V392.173C193 397.797 187.225 401.623 182.036 399.333L21.6627 328.571C18.8219 327.318 17 324.505 17 321.412V279.588C17 276.495 18.8219 273.683 21.6627 272.429L182.036 201.668ZM91.7806 295.576C91.7461 295.563 91.7574 295.566 91.8006 295.584C91.7945 295.581 91.788 295.579 91.7806 295.576ZM91.8006 304.661C91.7574 304.678 91.7461 304.681 91.7806 304.668C91.788 304.665 91.7945 304.663 91.8006 304.661ZM183 212.172L27 281.004V319.996L183 388.828V344.112L88.7765 305.13C88.6441 305.077 88.586 305.056 88.5052 305.027C88.4411 305.004 88.3627 304.975 88.2216 304.921C88.1692 304.901 87.8075 304.769 87.4265 304.559C87.2476 304.461 86.7641 304.187 86.2697 303.696C85.782 303.211 84.7803 302 84.7803 300.122C84.7803 298.244 85.782 297.033 86.2697 296.549C86.7641 296.057 87.2476 295.784 87.4265 295.685C87.7879 295.486 88.132 295.357 88.2111 295.327L88.2216 295.323C88.3627 295.269 88.4411 295.241 88.5052 295.217C88.589 295.187 88.6483 295.165 88.7913 295.108C88.7934 295.107 88.7955 295.106 88.7976 295.105L183 256.877V212.172Z" fill="#05060F"/>
<path d="M362.39 151C363.706 151 364.663 152.249 364.321 153.52L285.12 447.52C284.885 448.393 284.093 449 283.189 449H240.61C239.294 449 238.336 447.751 238.679 446.48L317.88 152.48C318.115 151.607 318.907 151 319.811 151H362.39Z" fill="#E93C3C"/>
<path fill-rule="evenodd" clip-rule="evenodd" d="M319.811 151C318.907 151 318.115 151.607 317.88 152.48L240.694 439L238.679 446.48C238.337 447.751 239.294 449 240.61 449H283.189C284.093 449 284.885 448.393 285.12 447.52L362.306 161L364.321 153.52C364.664 152.249 363.706 151 362.39 151H319.811ZM373.977 156.121L294.776 450.121C293.365 455.36 288.614 459 283.189 459H240.61C232.713 459 226.969 451.504 229.023 443.879L308.224 149.879C309.635 144.64 314.386 141 319.811 141H362.39C370.287 141 376.031 148.496 373.977 156.121Z" fill="#05060F"/>
</svg>
